<?xml version="1.0" encoding="UTF-8"?>
<svg xmlns="http://www.w3.org/2000/svg" xmlns:xlink="http://www.w3.org/1999/xlink" width="50pt" height="50pt" viewBox="0 0 50 50" version="1.1">
<g id="surface2928778">
<path style="fill-rule:nonzero;fill:rgb(100%,100%,100%);fill-opacity:1;stroke-width:4;stroke-linecap:butt;stroke-linejoin:round;stroke:rgb(80%,80%,80%);stroke-opacity:1;stroke-miterlimit:10;" d="M 158.592758 86 C 158.235159 101.129222 156.515929 113.52143 155.154299 122.117579 C 153.765161 130.03979 147.232088 135.19748 139.667477 136.916709 C 127.632868 139.323631 106.988357 141.042861 84.28077 141.042861 C 61.573183 141.042861 40.928672 139.323631 28.894063 136.916709 C 21.329452 135.19748 14.796379 129.68219 13.407242 122.117579 C 11.688012 113.52143 10.326382 101.486822 10.326382 86 C 10.326382 70.513178 11.688012 58.47857 13.077149 49.882421 C 14.438779 41.96021 20.985606 36.80252 28.550218 35.083291 C 39.910888 32.676369 61.229337 30.957139 83.936924 30.957139 C 106.644511 30.957139 127.632868 32.676369 138.966031 35.083291 C 146.544396 36.80252 153.077469 42.31781 154.452853 49.882421 C 156.172083 58.47857 157.891313 70.513178 158.592758 86 Z M 107.318449 86 L 65.355489 61.917029 L 65.355489 110.082971 Z M 107.318449 86 " transform="matrix(0.284012,0,0,0.284012,0.575,0.575)"/>
<path style=" stroke:none;fill-rule:nonzero;fill:rgb(100%,100%,100%);fill-opacity:1;" d="M 44.441406 14.742188 C 44.050781 12.59375 42.195312 11.027344 40.042969 10.539062 C 36.824219 9.855469 30.863281 9.367188 24.414062 9.367188 C 17.964844 9.367188 11.910156 9.855469 8.683594 10.539062 C 6.535156 11.027344 4.675781 12.492188 4.289062 14.742188 C 3.894531 17.183594 3.507812 20.601562 3.507812 25 C 3.507812 29.398438 3.894531 32.816406 4.382812 35.257812 C 4.777344 37.40625 6.632812 38.972656 8.78125 39.460938 C 12.199219 40.144531 18.0625 40.632812 24.511719 40.632812 C 30.960938 40.632812 36.824219 40.144531 40.242188 39.460938 C 42.390625 38.972656 44.246094 37.507812 44.640625 35.257812 C 45.027344 32.816406 45.515625 29.296875 45.617188 25 C 45.417969 20.601562 44.929688 17.183594 44.441406 14.742188 Z M 19.136719 31.839844 L 19.136719 18.160156 L 31.054688 25 Z M 19.136719 31.839844 "/>
</g>
</svg>
